<svg width="392" height="70.401" viewBox="0 0 392 70.401" xmlns="http://www.w3.org/2000/svg"><g id="svgGroup" stroke-linecap="round" fill-rule="evenodd" font-size="9pt" stroke="#000" stroke-width="0.25mm" fill="#4318ff" style="stroke:#000;stroke-width:0.25mm;fill:#4318ff"><path d="M 266.4 1.801 L 234 1.801 L 234 34.301 L 263.4 34.301 L 263.4 36.101 L 234 36.101 L 234 68.601 L 266.4 68.601 L 266.4 70.401 L 232 70.401 L 232 0.001 L 266.4 0.001 L 266.4 1.801 Z M 318.4 0.001 L 297.5 35.201 L 318.4 70.401 L 316.1 70.401 L 296.1 36.601 L 276.7 70.401 L 274.4 70.401 L 295 34.701 L 274.4 0.001 L 276.7 0.001 L 296.4 33.301 L 316.1 0.001 L 318.4 0.001 Z M 106.6 70.401 L 104.1 70.401 L 85.3 39.701 L 83.4 39.701 L 67.6 39.701 L 67.6 70.401 L 65.6 70.401 L 65.6 0.001 L 83.2 0.001 A 40.368 40.368 0 0 1 89.563 0.468 Q 92.885 0.999 95.528 2.136 A 16.833 16.833 0 0 1 100.45 5.301 A 17.493 17.493 0 0 1 105.7 15.18 A 25.491 25.491 0 0 1 106.1 19.801 A 24.409 24.409 0 0 1 105.439 25.641 A 17.039 17.039 0 0 1 101.3 33.401 Q 96.753 38.232 88.527 39.384 A 34.288 34.288 0 0 1 87.6 39.501 L 106.6 70.401 Z M 185.1 0.001 L 219.5 0.001 L 219.5 1.801 L 187.1 1.801 L 187.1 34.301 L 216.5 34.301 L 216.5 36.101 L 187.1 36.101 L 187.1 70.401 L 185.1 70.401 L 185.1 0.001 Z M 51.8 70.401 L 44.5 51.001 L 9.7 51.001 L 2.3 70.401 L 0 70.401 L 26.1 2.101 L 28.1 2.101 L 54.1 70.401 L 51.8 70.401 Z M 376.2 70.401 L 368.9 51.001 L 334.1 51.001 L 326.7 70.401 L 324.4 70.401 L 350.5 2.101 L 352.5 2.101 L 378.5 70.401 L 376.2 70.401 Z M 112.6 0.001 L 155.6 0.001 L 155.6 1.801 L 135.1 1.801 L 135.1 70.401 L 133.1 70.401 L 133.1 1.801 L 112.6 1.801 L 112.6 0.001 Z M 166.1 0.001 L 168.1 0.001 L 168.1 70.401 L 166.1 70.401 L 166.1 0.001 Z M 390 0.001 L 392 0.001 L 392 70.401 L 390 70.401 L 390 0.001 Z M 67.6 37.801 L 83.4 37.801 A 34.469 34.469 0 0 0 89.198 37.346 Q 95.269 36.308 98.85 32.901 A 16.285 16.285 0 0 0 103.754 23.23 A 23.014 23.014 0 0 0 104 19.801 A 21.605 21.605 0 0 0 102.781 12.226 Q 98.965 2.001 83.2 2.001 L 67.6 2.001 L 67.6 37.801 Z M 10.4 49.201 L 43.8 49.201 L 27.1 5.301 L 10.4 49.201 Z M 334.8 49.201 L 368.2 49.201 L 351.5 5.301 L 334.8 49.201 Z" vector-effect="non-scaling-stroke"/></g></svg>