<svg width="439.1" height="69.801" viewBox="0 0 439.1 69.801" xmlns="http://www.w3.org/2000/svg"><g id="svgGroup" stroke-linecap="round" fill-rule="evenodd" font-size="9pt" stroke="#000" stroke-width="0.25mm" fill="#4318ff" style="stroke:#000;stroke-width:0.25mm;fill:#4318ff"><path d="M 68.7 0.8 L 68.7 69.8 L 71.2 69.8 L 71.2 0.8 L 68.7 0.8 L 70.1 2.6 A 22.402 22.402 0 0 1 70.703 2.549 Q 72.847 2.393 77.65 2.35 A 1064.002 1064.002 0 0 1 81.319 2.324 Q 85.575 2.3 90.8 2.3 A 55.987 55.987 0 0 1 90.833 2.3 Q 95.012 2.303 98.059 2.925 A 18.029 18.029 0 0 1 100.95 3.75 Q 104.7 5.2 106.4 8.9 Q 108.1 12.6 108.1 19.4 Q 108.1 23.797 107.368 26.88 A 15.018 15.018 0 0 1 106.4 29.75 Q 104.7 33.4 100.95 34.9 Q 98.372 35.931 94.541 36.301 A 46.665 46.665 0 0 1 90.8 36.5 L 70 36.5 L 69.7 38.3 A 19.628 19.628 0 0 0 70.03 38.327 Q 71.204 38.414 73.8 38.5 A 351.687 351.687 0 0 0 74.103 38.51 Q 77.029 38.605 81.4 38.7 Q 83.701 38.75 86.278 38.775 A 559.918 559.918 0 0 0 91.7 38.8 Q 95.7 38.8 98.5 40.9 A 9.618 9.618 0 0 1 100.295 42.687 Q 101.128 43.751 101.83 45.158 A 22.793 22.793 0 0 1 103 48 L 110.4 69.8 L 113.2 69.8 L 105.6 47.7 A 28.98 28.98 0 0 0 105.283 46.833 A 25.415 25.415 0 0 0 103.7 43.45 Q 102.6 41.5 101.2 40.1 A 8.452 8.452 0 0 0 101.107 40.008 A 7.172 7.172 0 0 0 98 38.2 L 98 37.8 A 25.972 25.972 0 0 0 99.141 37.593 Q 100.809 37.251 102.223 36.718 A 14.183 14.183 0 0 0 105.2 35.2 Q 108 33.3 109.35 29.45 Q 110.236 26.924 110.54 23.385 A 46.607 46.607 0 0 0 110.7 19.4 A 59.073 59.073 0 0 0 110.697 18.755 Q 110.646 14.119 109.86 10.801 A 17.324 17.324 0 0 0 108.75 7.5 A 15.17 15.17 0 0 0 108.749 7.498 A 10.991 10.991 0 0 0 102.45 1.65 Q 99.527 0.542 95.273 0.178 A 52.664 52.664 0 0 0 90.8 0 A 907.327 907.327 0 0 0 87.754 0.005 Q 84.559 0.016 82.05 0.05 Q 78.4 0.1 75.3 0.25 A 90.034 90.034 0 0 0 72.919 0.398 A 108.973 108.973 0 0 0 68.7 0.8 Z M 26.1 0.8 L 30.4 0.8 Q 30.891 0.8 31.237 0.993 A 1.312 1.312 0 0 1 31.25 1 Q 31.591 1.195 31.695 1.675 A 1.68 1.68 0 0 1 31.7 1.7 L 56.5 69.8 L 53.8 69.8 L 31.7 8.6 L 30.7 5.8 L 29.7 3 L 26.8 3 L 25.8 5.8 L 24.8 8.6 L 2.7 69.8 L 0 69.8 L 24.8 1.7 A 1.877 1.877 0 0 1 24.955 1.392 Q 25.063 1.221 25.199 1.106 A 1.001 1.001 0 0 1 25.35 1 Q 25.7 0.8 26.1 0.8 Z M 394 0.8 L 398.3 0.8 Q 398.791 0.8 399.137 0.993 A 1.312 1.312 0 0 1 399.15 1 Q 399.491 1.195 399.595 1.675 A 1.68 1.68 0 0 1 399.6 1.7 L 424.4 69.8 L 421.7 69.8 L 399.6 8.6 L 398.6 5.8 L 397.6 3 L 394.7 3 L 393.7 5.8 L 392.7 8.6 L 370.6 69.8 L 367.9 69.8 L 392.7 1.7 A 1.877 1.877 0 0 1 392.855 1.392 Q 392.963 1.221 393.099 1.106 A 1.001 1.001 0 0 1 393.25 1 Q 393.6 0.8 394 0.8 Z M 300.9 1.2 L 300.7 3 L 272 3 A 9.217 9.217 0 0 0 269.194 3.41 A 7.559 7.559 0 0 0 266.1 5.3 Q 263.8 7.6 263.8 11.2 L 263.8 59.4 A 9.217 9.217 0 0 0 264.209 62.206 A 7.559 7.559 0 0 0 266.1 65.3 Q 268.4 67.6 272 67.6 L 300.7 67.6 L 300.9 69.4 Q 296 69.6 291.1 69.7 Q 286.2 69.8 281.3 69.8 L 271.5 69.8 Q 267.1 69.8 264.2 66.9 A 9.788 9.788 0 0 1 261.311 60.144 A 12.939 12.939 0 0 1 261.3 59.6 L 261.3 11 Q 261.3 6.6 264.2 3.7 A 9.788 9.788 0 0 1 270.956 0.812 A 12.939 12.939 0 0 1 271.5 0.8 L 281.3 0.8 Q 286.2 0.8 291.1 0.9 Q 296 1 300.9 1.2 Z M 247.5 1.2 L 247.3 3 L 219.3 3 A 9.217 9.217 0 0 0 216.494 3.41 A 7.559 7.559 0 0 0 213.4 5.3 Q 211.1 7.6 211.1 11.2 L 211.1 69.8 L 208.6 69.8 L 208.6 11 Q 208.6 6.6 211.5 3.7 A 9.788 9.788 0 0 1 218.256 0.812 A 12.939 12.939 0 0 1 218.8 0.8 L 228.4 0.8 Q 233.2 0.8 237.95 0.9 Q 242.7 1 247.5 1.2 Z M 357.9 0.8 L 360.9 0.8 L 340.3 33.8 L 362.2 69.8 L 359.2 69.8 L 337.3 33.8 L 357.9 0.8 Z M 311.8 0.8 L 314.8 0.8 L 335.4 33.8 L 313.5 69.8 L 310.5 69.8 L 332.4 33.8 L 311.8 0.8 Z M 146 0.8 L 148.5 0.8 L 148.5 69.8 L 146 69.8 L 146 0.8 Z M 185.8 0.8 L 188.3 0.8 L 188.3 69.8 L 185.8 69.8 L 185.8 0.8 Z M 436.6 0.8 L 439.1 0.8 L 439.1 69.8 L 436.6 69.8 L 436.6 0.8 Z M 121.8 0.8 L 172.8 0.8 L 172.8 3 L 121.8 3 L 121.8 0.8 Z M 10.7 42.4 L 45.7 42.4 L 45.7 44.6 L 10.7 44.6 L 10.7 42.4 Z M 378.6 42.4 L 413.6 42.4 L 413.6 44.6 L 378.6 44.6 L 378.6 42.4 Z M 263 33.9 L 263 31.7 L 296.6 31.8 L 296.6 33.8 L 263 33.9 Z M 210.3 34.3 L 210.3 32.1 L 243.2 32.2 L 243.2 34.2 L 210.3 34.3 Z M 334.2 32.6 L 339.4 32.6 L 339.4 34.8 L 334.2 34.8 L 334.2 32.6 Z" vector-effect="non-scaling-stroke"/></g></svg>